<svg width="16" height="16" viewBox="0 0 16 16" fill="none" xmlns="http://www.w3.org/2000/svg">
<g id="Default/linear/category">
<g id="category">
<path id="Vector" d="M3.33337 6.66666H4.66671C6.00004 6.66666 6.66671 5.99999 6.66671 4.66666V3.33333C6.66671 1.99999 6.00004 1.33333 4.66671 1.33333H3.33337C2.00004 1.33333 1.33337 1.99999 1.33337 3.33333V4.66666C1.33337 5.99999 2.00004 6.66666 3.33337 6.66666Z" stroke="#FDFDFD" stroke-miterlimit="10" stroke-linecap="round" stroke-linejoin="round"/>
<path id="Vector_2" d="M11.3334 6.66666H12.6667C14 6.66666 14.6667 5.99999 14.6667 4.66666V3.33333C14.6667 1.99999 14 1.33333 12.6667 1.33333H11.3334C10 1.33333 9.33337 1.99999 9.33337 3.33333V4.66666C9.33337 5.99999 10 6.66666 11.3334 6.66666Z" stroke="#FDFDFD" stroke-miterlimit="10" stroke-linecap="round" stroke-linejoin="round"/>
<path id="Vector_3" d="M11.3334 14.6667H12.6667C14 14.6667 14.6667 14 14.6667 12.6667V11.3333C14.6667 9.99999 14 9.33333 12.6667 9.33333H11.3334C10 9.33333 9.33337 9.99999 9.33337 11.3333V12.6667C9.33337 14 10 14.6667 11.3334 14.6667Z" stroke="#FDFDFD" stroke-miterlimit="10" stroke-linecap="round" stroke-linejoin="round"/>
<path id="Vector_4" d="M3.33337 14.6667H4.66671C6.00004 14.6667 6.66671 14 6.66671 12.6667V11.3333C6.66671 9.99999 6.00004 9.33333 4.66671 9.33333H3.33337C2.00004 9.33333 1.33337 9.99999 1.33337 11.3333V12.6667C1.33337 14 2.00004 14.6667 3.33337 14.6667Z" stroke="#FDFDFD" stroke-miterlimit="10" stroke-linecap="round" stroke-linejoin="round"/>
</g>
</g>
</svg>
