<svg width="24" height="24" viewBox="0 0 24 24" fill="none" xmlns="http://www.w3.org/2000/svg">
<g id="heart">
<rect width="24" height="24" rx="12" fill="#292526"/>
<g id="heart_2">
<path id="Vector" d="M14.96 6.06668C13.7533 6.06668 12.6733 6.65335 12 7.55335C11.3266 6.65335 10.2466 6.06668 9.03998 6.06668C6.99331 6.06668 5.33331 7.73335 5.33331 9.79335C5.33331 10.5867 5.45998 11.32 5.67998 12C6.73331 15.3333 9.97998 17.3267 11.5866 17.8733C11.8133 17.9533 12.1866 17.9533 12.4133 17.8733C14.02 17.3267 17.2666 15.3333 18.32 12C18.54 11.32 18.6666 10.5867 18.6666 9.79335C18.6666 7.73335 17.0066 6.06668 14.96 6.06668Z" fill="white"/>
</g>
</g>
</svg>
