<svg width="21" height="21" viewBox="0 0 21 21" fill="none" xmlns="http://www.w3.org/2000/svg">
<g id="Logo" clip-path="url(#clip0_1_2128)">
<path id="Vector" d="M20.4895 10.6871C20.4895 9.8677 20.4214 9.26977 20.2742 8.64969H10.6992V12.348H16.3195C16.2062 13.2671 15.5943 14.6512 14.2346 15.5813L14.2155 15.7051L17.2429 17.9969L17.4527 18.0174C19.3789 16.2789 20.4895 13.7211 20.4895 10.6871Z" fill="#4285F4"/>
<path id="Vector_2" d="M10.6991 20.4314C13.4526 20.4314 15.7642 19.5455 17.4526 18.0175L14.2345 15.5814C13.3733 16.1682 12.2175 16.5779 10.6991 16.5779C8.0023 16.5779 5.7134 14.8395 4.89747 12.4367L4.77787 12.4466L1.62991 14.8273L1.58875 14.9392C3.26576 18.1946 6.71048 20.4314 10.6991 20.4314Z" fill="#34A853"/>
<path id="Vector_3" d="M4.8976 12.4367C4.68231 11.8167 4.55771 11.1522 4.55771 10.4657C4.55771 9.77918 4.68231 9.11483 4.88627 8.49475L4.88057 8.36269L1.69316 5.94376L1.58888 5.99223C0.897698 7.34315 0.501099 8.86017 0.501099 10.4657C0.501099 12.0713 0.897698 13.5883 1.58888 14.9392L4.8976 12.4367Z" fill="#FBBC05"/>
<path id="Vector_4" d="M10.6991 4.35336C12.6141 4.35336 13.9058 5.16168 14.6424 5.83718L17.5205 3.09107C15.7529 1.4855 13.4526 0.5 10.6991 0.5C6.71048 0.5 3.26576 2.73672 1.58875 5.99214L4.88614 8.49466C5.7134 6.09183 8.0023 4.35336 10.6991 4.35336Z" fill="#EB4335"/>
</g>
<defs>
<clipPath id="clip0_1_2128">
<rect width="20" height="20" fill="white" transform="translate(0.5 0.5)"/>
</clipPath>
</defs>
</svg>
