<svg width="20" height="20" viewBox="0 0 20 20" fill="none" xmlns="http://www.w3.org/2000/svg">
<g id="default/linear/jeans">
<path id="Vector" d="M10.4916 10.9503C10.429 10.743 10.4054 10.1863 10.3876 9.96159L10.3271 9.31638C10.2839 8.83312 10.3249 8.1905 9.99417 7.79126C9.8362 7.98257 9.75796 8.28835 9.73042 8.52655L9.63466 9.8678C9.57983 10.5794 9.47378 11.2905 9.34216 11.9916L8.85134 14.1492C8.73747 14.5364 8.62626 14.9239 8.51741 15.3126C8.2429 16.2929 8.0936 17.0177 8.01294 18.0326L8.00016 18.3015C7.99376 18.7417 7.8822 18.7417 7.52018 18.7423L6.18639 18.7425C6.06358 18.7424 5.85917 18.7826 5.75386 18.7095L5.74221 18.7013C5.59526 18.6002 5.59604 18.5265 5.59573 18.3652L5.59298 16.6871C5.58928 16.5003 5.56036 16.3049 5.54202 16.1181L5.13112 12.7722L4.97319 10.7521L4.96253 10.2213C4.95655 10.0937 4.93147 9.96757 4.92651 9.84036L4.91739 9.17491C4.91552 9.09931 4.90182 9.02526 4.89911 8.9503L4.92843 6.84812L4.95639 6.55067C5.01286 5.7269 5.1152 5.2538 5.33694 4.45886L5.92581 2.29991L6.05577 1.71571C6.10255 1.50357 6.10262 1.32796 6.3453 1.26107L13.4901 1.25774C13.6631 1.25831 13.7757 1.26987 13.8596 1.44852L13.8671 1.46495C13.8833 1.49926 13.895 1.53514 13.9016 1.57263L14.9259 5.49978C14.9769 5.66048 14.9871 5.84712 15.0048 6.01423L15.0451 6.46495C15.051 6.52524 15.063 6.58509 15.0664 6.64562L15.083 7.66692L15.0641 10.064C15.0612 10.1504 15.0394 10.2358 15.036 10.3223L15.0237 10.8448C15.0208 10.907 15.0071 10.968 15.0031 11.03L14.8608 12.8857L14.4539 16.0297L14.4164 16.6252L14.3973 18.1956C14.3992 18.3893 14.4444 18.5678 14.2652 18.6963L14.2497 18.7073C14.16 18.772 14.0237 18.7419 13.9195 18.7421L12.6031 18.7422C11.9045 18.7416 12.0399 18.6517 11.9952 18.0792L11.8822 17.0362C11.8236 16.572 11.7044 16.1183 11.5806 15.6683L11.1427 14.1212C10.9317 13.3422 10.737 12.5501 10.6066 11.753L10.4916 10.9503ZM7.34298 1.77013L6.55846 1.77398C6.5321 1.83815 6.52366 1.90757 6.50882 1.97501L6.42434 2.37315C6.38956 2.51989 6.33555 2.66841 6.3095 2.81626L12.6245 2.81724L13.6959 2.81462L13.4877 1.94297C13.4758 1.89865 13.4666 1.80237 13.4381 1.77294L7.34298 1.77013ZM6.17657 3.32065L5.65591 5.1654C5.71544 5.12314 5.77329 5.08089 5.81839 5.02261C6.13348 4.64552 6.35567 3.82833 6.47741 3.32952L6.17657 3.32065ZM6.99604 3.3186C6.97743 3.42507 6.98405 3.53317 6.96466 3.64038C6.86438 4.19483 6.58702 5.17378 6.13278 5.49444L5.94843 5.6139C5.75093 5.73759 5.56846 5.64655 5.54702 5.76671C5.51546 5.94353 5.51005 6.12593 5.49229 6.30435L5.411 7.19034L5.41014 9.43429C5.42173 9.68657 5.44653 9.93919 5.45739 10.1905L5.4695 10.6244C5.47335 10.6953 5.48915 10.763 5.49309 10.8334L5.62903 12.792C5.63477 12.8479 5.64755 12.9029 5.65223 12.9591L6.05864 16.4259C6.07874 16.6861 6.09885 16.937 6.0993 17.1986L6.10966 18.0235C6.11227 18.0861 6.10387 18.1492 6.11331 18.2109L7.51448 18.2108C7.53936 17.7668 7.55952 17.3133 7.63526 16.8742C7.78606 16.0001 8.04288 15.16 8.28595 14.309L8.71075 12.6222C8.85378 11.9521 8.98034 11.2689 9.05895 10.5882L9.13415 9.75661C9.15819 9.48386 9.17309 9.22808 9.19091 8.9562L9.21153 8.77134C9.24665 8.33997 9.30079 7.95507 9.5369 7.58095C10.0618 6.74925 10.5985 7.59653 10.7071 8.17571L10.7528 8.43743C10.7786 8.57056 10.7731 8.71349 10.7866 8.84856L10.9035 10.2633L11.0563 11.4336L11.3721 13.0304L11.5791 13.8111L11.6034 13.9102C11.6067 13.9273 11.6118 13.9409 11.6175 13.9572L11.684 14.2112C11.6874 14.2257 11.6917 14.2382 11.6966 14.2522L12.2021 16.0652C12.2532 16.2269 12.2781 16.4066 12.3066 16.5737L12.4661 17.8212C12.4746 17.9499 12.4914 18.0734 12.4933 18.2036C12.5221 18.2156 12.5651 18.2099 12.5969 18.2099L12.8657 18.2101C13.2073 18.2102 13.5563 18.2268 13.8969 18.2093L13.8994 17.0775C13.9003 16.7147 13.923 16.384 13.9553 16.0255L14.2949 13.4636L14.5045 11.0301C14.5115 10.9135 14.5317 10.7994 14.535 10.6822L14.5786 9.54696L14.5979 8.1863L14.5454 6.52538C14.5281 6.25999 14.5148 5.99247 14.4731 5.72952C14.4138 5.70452 14.3439 5.70108 14.2823 5.68202C14.0231 5.60181 13.7666 5.45804 13.5889 5.24888L13.5797 5.23821C13.4356 5.06349 13.3705 4.80854 13.2983 4.59845C13.2622 4.49329 13.2046 4.39731 13.1666 4.29386C13.0517 3.98091 13.0161 3.65226 13.0176 3.32081L10.6473 3.33144C10.7395 3.55653 10.7793 3.77624 10.7917 4.02017L10.7918 5.28331C10.7903 5.32108 10.7929 5.38692 10.7741 5.42065L10.762 5.43833C10.7189 5.50124 10.6787 5.5547 10.6 5.57452C10.2503 5.66251 10.3052 5.22694 10.3087 5.04407L10.311 4.52198C10.3117 4.12851 10.3393 3.65876 10.0307 3.36735C10.0242 3.53851 10.0527 3.71585 10.0577 3.88925C10.0659 4.17581 10.0635 4.46519 10.0333 4.75034L9.9968 4.99226C9.96784 5.19956 9.81989 5.89798 9.50677 5.84575C9.20665 5.79569 9.3086 5.53226 9.37147 5.35048L9.47905 4.98886C9.54124 4.7395 9.57219 4.45321 9.56626 4.19565L9.53313 3.41784C9.53165 3.39019 9.53528 3.35208 9.5226 3.32808L6.99604 3.3186ZM13.544 3.3195C13.5473 3.63761 13.6555 3.98755 13.7507 4.28722C13.791 4.41415 13.8612 4.52312 13.9149 4.64384C13.9996 4.8344 14.043 5.01065 14.2477 5.11229L14.3386 5.15163L13.8812 3.48853C13.8675 3.4336 13.8604 3.37347 13.8335 3.32358L13.6429 3.31966C13.6148 3.31964 13.5704 3.32603 13.544 3.3195Z" fill="#292526"/>
</g>
</svg>
