<svg width="18" height="19" viewBox="0 0 18 19" fill="none" xmlns="http://www.w3.org/2000/svg">
<g id="Default Icon">
<path id="Vector" d="M15.9627 6.70682L11.4996 6.05819L9.50448 2.01346C9.44999 1.90272 9.36034 1.81307 9.2496 1.75858C8.97186 1.62147 8.63436 1.73572 8.49549 2.01346L6.50038 6.05819L2.03729 6.70682C1.91425 6.7244 1.80174 6.7824 1.71561 6.87029C1.61148 6.97732 1.5541 7.12131 1.55608 7.27062C1.55806 7.41993 1.61923 7.56235 1.72616 7.66658L4.95526 10.8148L4.19237 15.2603C4.17448 15.3637 4.18592 15.4701 4.2254 15.5673C4.26488 15.6646 4.33082 15.7488 4.41573 15.8105C4.50065 15.8722 4.60114 15.9088 4.70583 15.9163C4.81051 15.9237 4.91519 15.9017 5.00799 15.8527L8.99999 13.7539L12.992 15.8527C13.101 15.9107 13.2275 15.9301 13.3488 15.909C13.6547 15.8562 13.8603 15.5662 13.8076 15.2603L13.0447 10.8148L16.2738 7.66658C16.3617 7.58045 16.4197 7.46795 16.4373 7.3449C16.4848 7.03729 16.2703 6.75252 15.9627 6.70682Z" fill="#FFD33C"/>
</g>
</svg>
